<svg width="32" height="34" viewBox="0 0 32 34" fill="none" xmlns="http://www.w3.org/2000/svg">
<g style="mix-blend-mode:plus-lighter">
<path d="M25.4902 26.225C24.4166 28.3186 22.7837 30.0768 20.7706 31.3062C18.7575 32.5356 16.4425 33.1885 14.0805 33.1928C13.0667 33.1971 12.056 33.078 11.0713 32.8381L13.0358 28.5168C14.7702 28.7454 16.5323 28.4138 18.0631 27.571C19.5939 26.7282 20.8122 25.4187 21.5389 23.8351C22.2655 22.2516 22.462 20.4778 22.0994 18.7749C21.737 17.0719 20.8345 15.5296 19.525 14.3752L21.4895 10.0683C23.9902 11.8385 25.7694 14.4427 26.5035 17.4078C27.2377 20.3728 26.8781 23.5015 25.4902 26.225Z" fill="url(#paint0_linear_1123_653)"/>
<path d="M22.6937 1.71052L20.7576 5.93237C19.3294 5.51416 17.8136 5.49205 16.3738 5.86843C14.9339 6.24481 13.6248 7.00543 12.5876 8.0681C11.5505 9.13077 10.8248 10.4551 10.4889 11.8982C10.1529 13.3414 10.2195 14.8484 10.6815 16.2566C11.2599 18.0487 12.4523 19.5818 14.0509 20.5884L12.1148 24.8175C9.25388 23.1962 7.13042 20.5408 6.18557 17.4026C5.24072 14.2643 5.5471 10.8846 7.04109 7.96529C8.44511 5.2121 10.8063 3.0602 13.6856 1.90966C16.5648 0.759134 19.766 0.688353 22.6937 1.71052Z" fill="url(#paint1_linear_1123_653)"/>
<path d="M19.6533 23.2839C19.1336 24.3004 18.3181 25.1374 17.3133 25.6862C16.3084 26.2348 15.1608 26.4695 14.0199 26.3599L18.4982 16.5856C19.3913 17.4286 19.9862 18.5365 20.1944 19.7437C20.4027 20.951 20.2129 22.1929 19.6533 23.2839Z" fill="url(#paint2_linear_1123_653)"/>
<path d="M19.6773 8.313L15.1598 18.1758C13.9852 17.4971 13.1062 16.4079 12.6938 15.1201C12.2814 13.8324 12.3649 12.438 12.9282 11.2082C13.4915 9.97829 14.4943 9.00078 15.7417 8.46566C16.9891 7.93054 18.3918 7.87609 19.6773 8.313Z" fill="url(#paint3_linear_1123_653)"/>
<path d="M25.4902 26.225C24.4166 28.3186 22.7837 30.0768 20.7706 31.3062C18.7575 32.5356 16.4425 33.1885 14.0805 33.1928C13.0667 33.1971 12.056 33.078 11.0713 32.8381L13.0358 28.5168C14.7702 28.7454 16.5323 28.4138 18.0631 27.571C19.5939 26.7282 20.8122 25.4187 21.5389 23.8351C22.2655 22.2516 22.462 20.4778 22.0994 18.7749C21.737 17.0719 20.8345 15.5296 19.525 14.3752L21.4895 10.0683C23.9902 11.8385 25.7694 14.4427 26.5035 17.4078C27.2377 20.3728 26.8781 23.5015 25.4902 26.225Z" stroke="url(#paint4_linear_1123_653)" stroke-opacity="0.4" stroke-width="0.177778"/>
<path d="M22.6937 1.71052L20.7576 5.93237C19.3294 5.51416 17.8136 5.49205 16.3738 5.86843C14.9339 6.24481 13.6248 7.00543 12.5876 8.0681C11.5505 9.13077 10.8248 10.4551 10.4889 11.8982C10.1529 13.3414 10.2195 14.8484 10.6815 16.2566C11.2599 18.0487 12.4523 19.5818 14.0509 20.5884L12.1148 24.8175C9.25388 23.1962 7.13042 20.5408 6.18557 17.4026C5.24072 14.2643 5.5471 10.8846 7.04109 7.96529C8.44511 5.2121 10.8063 3.0602 13.6856 1.90966C16.5648 0.759134 19.766 0.688353 22.6937 1.71052Z" stroke="url(#paint5_linear_1123_653)" stroke-opacity="0.4" stroke-width="0.177778"/>
<path d="M19.6533 23.2839C19.1336 24.3004 18.3181 25.1374 17.3133 25.6862C16.3084 26.2348 15.1608 26.4695 14.0199 26.3599L18.4982 16.5856C19.3913 17.4286 19.9862 18.5365 20.1944 19.7437C20.4027 20.951 20.2129 22.1929 19.6533 23.2839Z" stroke="url(#paint6_linear_1123_653)" stroke-opacity="0.4" stroke-width="0.177778"/>
<path d="M19.6773 8.313L15.1598 18.1758C13.9852 17.4971 13.1062 16.4079 12.6938 15.1201C12.2814 13.8324 12.3649 12.438 12.9282 11.2082C13.4915 9.97829 14.4943 9.00078 15.7417 8.46566C16.9891 7.93054 18.3918 7.87609 19.6773 8.313Z" stroke="url(#paint7_linear_1123_653)" stroke-opacity="0.4" stroke-width="0.177778"/>
</g>
<g style="mix-blend-mode:plus-lighter">
<path d="M25.4902 26.225C24.4166 28.3186 22.7837 30.0768 20.7706 31.3062C18.7575 32.5356 16.4425 33.1885 14.0805 33.1928C13.0667 33.1971 12.056 33.078 11.0713 32.8381L13.0358 28.5168C14.7702 28.7454 16.5323 28.4138 18.0631 27.571C19.5939 26.7282 20.8122 25.4187 21.5389 23.8351C22.2655 22.2516 22.462 20.4778 22.0994 18.7749C21.737 17.0719 20.8345 15.5296 19.525 14.3752L21.4895 10.0683C23.9902 11.8385 25.7694 14.4427 26.5035 17.4078C27.2377 20.3728 26.8781 23.5015 25.4902 26.225Z" stroke="url(#paint8_linear_1123_653)" stroke-opacity="0.4" stroke-width="0.177778"/>
<path d="M22.6937 1.71052L20.7576 5.93237C19.3294 5.51416 17.8136 5.49205 16.3738 5.86843C14.9339 6.24481 13.6248 7.00543 12.5876 8.0681C11.5505 9.13077 10.8248 10.4551 10.4889 11.8982C10.1529 13.3414 10.2195 14.8484 10.6815 16.2566C11.2599 18.0487 12.4523 19.5818 14.0509 20.5884L12.1148 24.8175C9.25388 23.1962 7.13042 20.5408 6.18557 17.4026C5.24072 14.2643 5.5471 10.8846 7.04109 7.96529C8.44511 5.2121 10.8063 3.0602 13.6856 1.90966C16.5648 0.759134 19.766 0.688353 22.6937 1.71052Z" stroke="url(#paint9_linear_1123_653)" stroke-opacity="0.4" stroke-width="0.177778"/>
<path d="M19.6533 23.2839C19.1336 24.3004 18.3181 25.1374 17.3133 25.6862C16.3084 26.2348 15.1608 26.4695 14.0199 26.3599L18.4982 16.5856C19.3913 17.4286 19.9862 18.5365 20.1944 19.7437C20.4027 20.951 20.2129 22.1929 19.6533 23.2839Z" stroke="url(#paint10_linear_1123_653)" stroke-opacity="0.4" stroke-width="0.177778"/>
<path d="M19.6773 8.313L15.1598 18.1758C13.9852 17.4971 13.1062 16.4079 12.6938 15.1201C12.2814 13.8324 12.3649 12.438 12.9282 11.2082C13.4915 9.97829 14.4943 9.00078 15.7417 8.46566C16.9891 7.93054 18.3918 7.87609 19.6773 8.313Z" stroke="url(#paint11_linear_1123_653)" stroke-opacity="0.4" stroke-width="0.177778"/>
</g>
<defs>
<linearGradient id="paint0_linear_1123_653" x1="16.2698" y1="33.226" x2="19.0795" y2="1.19356" gradientUnits="userSpaceOnUse">
<stop stop-color="#E13E00"/>
<stop offset="1" stop-color="#FF812A"/>
</linearGradient>
<linearGradient id="paint1_linear_1123_653" x1="16.2698" y1="33.226" x2="19.0795" y2="1.19356" gradientUnits="userSpaceOnUse">
<stop stop-color="#E13E00"/>
<stop offset="1" stop-color="#FF812A"/>
</linearGradient>
<linearGradient id="paint2_linear_1123_653" x1="16.2698" y1="33.226" x2="19.0795" y2="1.19356" gradientUnits="userSpaceOnUse">
<stop stop-color="#E13E00"/>
<stop offset="1" stop-color="#FF812A"/>
</linearGradient>
<linearGradient id="paint3_linear_1123_653" x1="16.2698" y1="33.226" x2="19.0795" y2="1.19356" gradientUnits="userSpaceOnUse">
<stop stop-color="#E13E00"/>
<stop offset="1" stop-color="#FF812A"/>
</linearGradient>
<linearGradient id="paint4_linear_1123_653" x1="16.2613" y1="0.992187" x2="16.2613" y2="33.1929" gradientUnits="userSpaceOnUse">
<stop stop-color="white"/>
<stop offset="1"/>
</linearGradient>
<linearGradient id="paint5_linear_1123_653" x1="16.2613" y1="0.992187" x2="16.2613" y2="33.1929" gradientUnits="userSpaceOnUse">
<stop stop-color="white"/>
<stop offset="1"/>
</linearGradient>
<linearGradient id="paint6_linear_1123_653" x1="16.2613" y1="0.992187" x2="16.2613" y2="33.1929" gradientUnits="userSpaceOnUse">
<stop stop-color="white"/>
<stop offset="1"/>
</linearGradient>
<linearGradient id="paint7_linear_1123_653" x1="16.2613" y1="0.992187" x2="16.2613" y2="33.1929" gradientUnits="userSpaceOnUse">
<stop stop-color="white"/>
<stop offset="1"/>
</linearGradient>
<linearGradient id="paint8_linear_1123_653" x1="16.2613" y1="0.992187" x2="16.2613" y2="33.1929" gradientUnits="userSpaceOnUse">
<stop stop-color="white"/>
<stop offset="1"/>
</linearGradient>
<linearGradient id="paint9_linear_1123_653" x1="16.2613" y1="0.992187" x2="16.2613" y2="33.1929" gradientUnits="userSpaceOnUse">
<stop stop-color="white"/>
<stop offset="1"/>
</linearGradient>
<linearGradient id="paint10_linear_1123_653" x1="16.2613" y1="0.992187" x2="16.2613" y2="33.1929" gradientUnits="userSpaceOnUse">
<stop stop-color="white"/>
<stop offset="1"/>
</linearGradient>
<linearGradient id="paint11_linear_1123_653" x1="16.2613" y1="0.992187" x2="16.2613" y2="33.1929" gradientUnits="userSpaceOnUse">
<stop stop-color="white"/>
<stop offset="1"/>
</linearGradient>
</defs>
</svg>
