<svg width="24" height="24" viewBox="0 0 24 24" fill="none" xmlns="http://www.w3.org/2000/svg">
<path d="M19.764 10.0166L13.9171 15.8459L14.9762 16.9082L20.8231 11.0789L19.764 10.0166ZM9.48279 15.8459L8.10944 14.4767L7.05037 15.5389L8.42373 16.9082L9.48279 15.8459ZM8.10944 10.062L13.9563 4.23268L12.8972 3.17043L7.05038 8.99974L8.10944 10.062ZM17.5468 2.75009H18.1157V1.25009H17.5468V2.75009ZM21.2501 5.87286V6.44002H22.7501V5.87286H21.2501ZM18.1157 2.75009C19.0524 2.75009 19.6797 2.75167 20.1472 2.81434C20.5933 2.87414 20.7799 2.97697 20.9017 3.09837L21.9608 2.03612C21.5137 1.59036 20.9581 1.40962 20.3465 1.32763C19.7562 1.24851 19.0101 1.25009 18.1157 1.25009V2.75009ZM22.7501 5.87286C22.7501 4.98131 22.7517 4.23697 22.6723 3.64789C22.5899 3.03701 22.4082 2.48218 21.9608 2.03612L20.9017 3.09837C21.0232 3.21946 21.1259 3.40462 21.1857 3.84835C21.2485 4.31389 21.2501 4.93878 21.2501 5.87286H22.7501ZM8.10944 14.4767C7.44701 13.8162 7.00477 13.3731 6.71885 12.9995C6.44611 12.6431 6.3877 12.4398 6.3877 12.2693H4.8877C4.8877 12.901 5.15298 13.4215 5.52764 13.9111C5.88913 14.3834 6.418 14.9085 7.05037 15.5389L8.10944 14.4767ZM8.42373 16.9082C9.05613 17.5387 9.58271 18.0659 10.0564 18.4263C10.5475 18.7998 11.0685 19.0634 11.7 19.0634V17.5634C11.5269 17.5634 11.322 17.5043 10.9646 17.2324C10.5897 16.9473 10.1452 16.5063 9.48279 15.8459L8.42373 16.9082ZM20.8231 11.0789C21.6216 10.2827 22.1785 9.74622 22.4709 9.04242L21.0857 8.46692C20.9346 8.83068 20.6495 9.13374 19.764 10.0166L20.8231 11.0789ZM21.2501 6.44002C21.2501 7.68861 21.2368 8.10341 21.0857 8.46692L22.4709 9.04242C22.7634 8.33837 22.7501 7.56593 22.7501 6.44002H21.2501ZM13.9563 4.23268C14.8415 3.35009 15.1458 3.06541 15.5115 2.9144L14.9389 1.52797C14.2338 1.81917 13.6961 2.37399 12.8972 3.17043L13.9563 4.23268ZM17.5468 1.25009C16.4171 1.25009 15.6438 1.23688 14.9389 1.52797L15.5115 2.9144C15.8774 2.7633 16.2949 2.75009 17.5468 2.75009V1.25009ZM13.9171 15.8459C13.4058 16.3557 13.0211 16.7387 12.6905 17.0242C12.3587 17.3107 12.1351 17.4505 11.9597 17.5151L12.4781 18.9227C12.906 18.7651 13.2919 18.4868 13.6709 18.1594C14.0513 17.8309 14.4788 17.4041 14.9762 16.9082L13.9171 15.8459ZM11.9597 17.5151C11.8673 17.5492 11.7848 17.5634 11.7 17.5634V19.0634C11.9707 19.0634 12.2283 19.0147 12.4781 18.9227L11.9597 17.5151ZM7.05038 8.99974C6.5649 9.48376 6.14575 9.90112 5.82033 10.2725C5.49625 10.6424 5.21908 11.0168 5.05382 11.4278L6.44551 11.9874C6.51649 11.8109 6.66249 11.5875 6.94849 11.2611C7.23315 10.9362 7.611 10.5589 8.10944 10.062L7.05038 8.99974ZM5.05382 11.4278C4.94592 11.6961 4.8877 11.9744 4.8877 12.2693H6.3877C6.3877 12.1792 6.40412 12.0903 6.44551 11.9874L5.05382 11.4278Z" fill="white"/>
<path opacity="0.5" d="M5.57362 11.5297L6.10395 10.9993L6.10316 10.9985L5.57362 11.5297ZM9.91988 7.42042C10.2682 7.6446 10.7323 7.54397 10.9565 7.19566C11.1806 6.84736 11.08 6.38327 10.7317 6.15909L9.91988 7.42042ZM12.5003 18.4984L11.97 19.0287C11.9816 19.0403 11.9935 19.0515 12.0059 19.0624L12.5003 18.4984ZM17.8241 13.2303C17.599 12.8826 17.1347 12.7832 16.787 13.0084C16.4393 13.2335 16.3399 13.6979 16.565 14.0455L17.8241 13.2303ZM13.0232 18.9569L13.5527 18.4257L13.5357 18.4088L13.5176 18.3929L13.0232 18.9569ZM10.7317 6.15909L10.1025 5.75412L9.29066 7.01545L9.91988 7.42042L10.7317 6.15909ZM10.1025 5.75412C9.48105 5.35416 8.97949 5.03073 8.54781 4.79812C8.1067 4.56043 7.69349 4.39185 7.23659 4.32433L7.0173 5.80821C7.2367 5.84063 7.47719 5.92512 7.83627 6.11861C8.20477 6.31718 8.64987 6.60303 9.29066 7.01545L10.1025 5.75412ZM2.75497 8.55284C3.31803 7.99148 3.92197 7.38957 4.46471 6.89445C4.73588 6.64707 4.98282 6.43463 5.19464 6.27137C5.41808 6.09915 5.55981 6.01534 5.62714 5.98741L5.05228 4.60193C4.79504 4.70867 4.52524 4.89346 4.27893 5.08331C4.02101 5.28211 3.74001 5.52517 3.45378 5.78628C2.88173 6.30814 2.2531 6.93508 1.69592 7.49057L2.75497 8.55284ZM7.23659 4.32433C6.50192 4.21575 5.7465 4.31389 5.05228 4.60193L5.62714 5.98741C6.07781 5.80042 6.55915 5.7405 7.0173 5.80821L7.23659 4.32433ZM2.20851 9.97172L2.58715 10.1217L3.13972 8.72724L2.76108 8.57721L2.20851 9.97172ZM4.08336 11.1029L5.04409 12.0608L6.10316 10.9985L5.14242 10.0407L4.08336 11.1029ZM2.58715 10.1217C2.65078 10.1469 2.67626 10.157 2.70095 10.1672L3.27236 8.78035C3.23613 8.76543 3.19977 8.75103 3.13972 8.72724L2.58715 10.1217ZM5.14242 10.0407C5.09674 9.99518 5.06907 9.96757 5.04096 9.9403L3.99641 11.0168C4.01555 11.0353 4.03494 11.0547 4.08336 11.1029L5.14242 10.0407ZM2.70095 10.1672C3.18311 10.3659 3.62275 10.6542 3.99641 11.0168L5.04096 9.9403C4.53056 9.44507 3.93031 9.05143 3.27236 8.78035L2.70095 10.1672ZM1.69592 7.49057C0.922129 8.26202 1.19496 9.5701 2.20851 9.97172L2.76108 8.57721C2.75663 8.57544 2.75482 8.57412 2.75454 8.57391C2.75416 8.57363 2.75467 8.57408 2.75454 8.57391C2.75407 8.57335 2.75175 8.57028 2.75081 8.56574C2.74987 8.56121 2.75049 8.55845 2.75058 8.55811C2.75046 8.55832 2.75059 8.55808 2.75058 8.55811C2.75064 8.55802 2.75173 8.55606 2.75497 8.55284L1.69592 7.49057ZM16.565 14.0455L16.9712 14.6729L18.2303 13.8576L17.8241 13.2303L16.565 14.0455ZM15.4294 21.1828L15.3454 21.2666L16.4044 22.3289L16.4885 22.2451L15.4294 21.1828ZM16.9712 14.6729C17.3849 15.3118 17.6716 15.7554 17.8706 16.1227C18.0646 16.4805 18.1491 16.7197 18.1814 16.9375L19.6651 16.7169C19.5972 16.2603 19.4278 15.8478 19.1893 15.4078C18.956 14.9773 18.6315 14.4771 18.2303 13.8576L16.9712 14.6729ZM16.4885 22.2451C17.0456 21.6896 17.6745 21.0628 18.1979 20.4925C18.4598 20.2071 18.7036 19.9269 18.9031 19.6697C19.0934 19.4242 19.279 19.1549 19.3863 18.8979L18.0021 18.3201C17.9743 18.3867 17.8904 18.5278 17.7177 18.7506C17.5539 18.9617 17.3409 19.2079 17.0928 19.4782C16.5962 20.0193 15.9925 20.6215 15.4294 21.1828L16.4885 22.2451ZM18.1814 16.9375C18.2491 17.3929 18.1893 17.8716 18.0021 18.3201L19.3863 18.8979C19.6756 18.205 19.7742 17.4506 19.6651 16.7169L18.1814 16.9375ZM13.5176 18.3929L12.9947 17.9345L12.0059 19.0624L12.5287 19.5208L13.5176 18.3929ZM15.446 21.2954C15.2313 20.7568 15.1023 20.4297 14.9327 20.1205L13.6176 20.8419C13.7329 21.0521 13.825 21.2798 14.0526 21.8508L15.446 21.2954ZM12.4936 19.488C12.9294 19.9225 13.1028 20.0971 13.2508 20.286L14.4314 19.3607C14.2139 19.0831 13.9638 18.8355 13.5527 18.4257L12.4936 19.488ZM14.9327 20.1205C14.7866 19.8541 14.6189 19.5999 14.4314 19.3607L13.2508 20.286C13.388 20.461 13.5107 20.647 13.6176 20.8419L14.9327 20.1205ZM15.3454 21.2666C15.3517 21.2603 15.3622 21.2538 15.3738 21.2506C15.3836 21.2478 15.391 21.2481 15.3962 21.2492C15.4013 21.2502 15.4099 21.2531 15.4202 21.2612C15.4319 21.2706 15.4413 21.2836 15.446 21.2954L14.0526 21.8508C14.4366 22.8139 15.6845 23.0466 16.4044 22.3289L15.3454 21.2666ZM13.0306 17.9681L12.7494 17.6869L11.6888 18.7475L11.97 19.0287L13.0306 17.9681ZM5.04329 12.06L5.21953 12.2362L6.28019 11.1756L6.10395 10.9993L5.04329 12.06Z" fill="white"/>
<path opacity="0.5" d="M10.8564 14.171C11.1497 13.8786 11.1504 13.4037 10.858 13.1104C10.5655 12.817 10.0906 12.8163 9.79733 13.1088L10.8564 14.171ZM8.79636 16.2249L10.8564 14.171L9.79733 13.1088L7.7373 15.1626L8.79636 16.2249ZM16.6641 9.00106C16.1983 9.46543 15.4422 9.46543 14.9764 9.00106L13.9174 10.0633C14.9685 11.1114 16.6719 11.1114 17.7231 10.0633L16.6641 9.00106ZM14.9764 9.00106C14.5119 8.53793 14.5119 7.78798 14.9764 7.32485L13.9174 6.26259C12.8649 7.31187 12.8649 9.01402 13.9174 10.0633L14.9764 9.00106ZM14.9764 7.32485C15.4422 6.86047 16.1983 6.86047 16.6641 7.32485L17.7231 6.26259C16.6719 5.21456 14.9685 5.21456 13.9174 6.26259L14.9764 7.32485ZM16.6641 7.32485C17.1286 7.78798 17.1286 8.53793 16.6641 9.00106L17.7231 10.0633C18.7756 9.01402 18.7756 7.31187 17.7231 6.26259L16.6641 7.32485Z" fill="white"/>
</svg>
