<svg width="24" height="26" viewBox="0 0 24 26" fill="none" xmlns="http://www.w3.org/2000/svg">
<g style="mix-blend-mode:plus-lighter">
<path d="M19.1168 19.9168C18.3116 21.487 17.0869 22.8056 15.5771 23.7277C14.0673 24.6497 12.331 25.1394 10.5595 25.1427C9.79917 25.1459 9.04112 25.0565 8.3026 24.8766L9.77603 21.6356C11.0768 21.8071 12.3984 21.5584 13.5465 20.9263C14.6946 20.2942 15.6083 19.3121 16.1533 18.1244C16.6983 16.9367 16.8457 15.6064 16.5737 14.3292C16.3019 13.052 15.625 11.8952 14.6429 11.0295L16.1163 7.79929C17.9918 9.12692 19.3262 11.0801 19.8767 13.3039C20.4274 15.5277 20.1577 17.8742 19.1168 19.9168Z" fill="url(#paint0_linear_1436_659)"/>
<path d="M17.0194 1.53094L15.5673 4.69732C14.4962 4.38366 13.3593 4.36708 12.2795 4.64937C11.1996 4.93165 10.2178 5.50212 9.43985 6.29912C8.66204 7.09612 8.11776 8.0894 7.86581 9.17169C7.61385 10.2541 7.66373 11.3843 8.01028 12.4405C8.44407 13.7846 9.33839 14.9344 10.5373 15.6894L9.08523 18.8611C6.93955 17.6452 5.34696 15.6537 4.63832 13.3C3.92968 10.9463 4.15947 8.41152 5.27996 6.22201C6.33298 4.15712 8.10391 2.5432 10.2633 1.68029C12.4227 0.817397 14.8236 0.764312 17.0194 1.53094Z" fill="url(#paint1_linear_1436_659)"/>
<path d="M14.7391 17.711C14.3493 18.4734 13.7377 19.1011 12.9841 19.5127C12.2304 19.9242 11.3697 20.1002 10.5141 20.018L13.8728 12.6873C14.5426 13.3195 14.9888 14.1504 15.145 15.0558C15.3011 15.9613 15.1588 16.8927 14.7391 17.711Z" fill="url(#paint2_linear_1436_659)"/>
<path d="M14.7571 6.4828L11.369 13.8799C10.488 13.3709 9.82881 12.554 9.51949 11.5882C9.21018 10.6224 9.27284 9.57657 9.6953 8.65417C10.1178 7.73176 10.8699 6.99863 11.8054 6.59729C12.741 6.19595 13.793 6.15511 14.7571 6.4828Z" fill="url(#paint3_linear_1436_659)"/>
<path d="M19.1168 19.9168C18.3116 21.487 17.0869 22.8056 15.5771 23.7277C14.0673 24.6497 12.331 25.1394 10.5595 25.1427C9.79917 25.1459 9.04112 25.0565 8.3026 24.8766L9.77603 21.6356C11.0768 21.8071 12.3984 21.5584 13.5465 20.9263C14.6946 20.2942 15.6083 19.3121 16.1533 18.1244C16.6983 16.9367 16.8457 15.6064 16.5737 14.3292C16.3019 13.052 15.625 11.8952 14.6429 11.0295L16.1163 7.79929C17.9918 9.12692 19.3262 11.0801 19.8767 13.3039C20.4274 15.5277 20.1577 17.8742 19.1168 19.9168Z" stroke="url(#paint4_linear_1436_659)" stroke-opacity="0.4" stroke-width="0.133333"/>
<path d="M17.0194 1.53094L15.5673 4.69732C14.4962 4.38366 13.3593 4.36708 12.2795 4.64937C11.1996 4.93165 10.2178 5.50212 9.43985 6.29912C8.66204 7.09612 8.11776 8.0894 7.86581 9.17169C7.61385 10.2541 7.66373 11.3843 8.01028 12.4405C8.44407 13.7846 9.33839 14.9344 10.5373 15.6894L9.08523 18.8611C6.93955 17.6452 5.34696 15.6537 4.63832 13.3C3.92968 10.9463 4.15947 8.41152 5.27996 6.22201C6.33298 4.15712 8.10391 2.5432 10.2633 1.68029C12.4227 0.817397 14.8236 0.764312 17.0194 1.53094Z" stroke="url(#paint5_linear_1436_659)" stroke-opacity="0.4" stroke-width="0.133333"/>
<path d="M14.7391 17.711C14.3493 18.4734 13.7377 19.1011 12.9841 19.5127C12.2304 19.9242 11.3697 20.1002 10.5141 20.018L13.8728 12.6873C14.5426 13.3195 14.9888 14.1504 15.145 15.0558C15.3011 15.9613 15.1588 16.8927 14.7391 17.711Z" stroke="url(#paint6_linear_1436_659)" stroke-opacity="0.4" stroke-width="0.133333"/>
<path d="M14.7571 6.4828L11.369 13.8799C10.488 13.3709 9.82881 12.554 9.51949 11.5882C9.21018 10.6224 9.27284 9.57657 9.6953 8.65417C10.1178 7.73176 10.8699 6.99863 11.8054 6.59729C12.741 6.19595 13.793 6.15511 14.7571 6.4828Z" stroke="url(#paint7_linear_1436_659)" stroke-opacity="0.4" stroke-width="0.133333"/>
</g>
<g style="mix-blend-mode:plus-lighter">
<path d="M19.1168 19.9168C18.3116 21.487 17.0869 22.8056 15.5771 23.7277C14.0673 24.6497 12.331 25.1394 10.5595 25.1427C9.79917 25.1459 9.04112 25.0565 8.3026 24.8766L9.77603 21.6356C11.0768 21.8071 12.3984 21.5584 13.5465 20.9263C14.6946 20.2942 15.6083 19.3121 16.1533 18.1244C16.6983 16.9367 16.8457 15.6064 16.5737 14.3292C16.3019 13.052 15.625 11.8952 14.6429 11.0295L16.1163 7.79929C17.9918 9.12692 19.3262 11.0801 19.8767 13.3039C20.4274 15.5277 20.1577 17.8742 19.1168 19.9168Z" stroke="url(#paint8_linear_1436_659)" stroke-opacity="0.4" stroke-width="0.133333"/>
<path d="M17.0194 1.53094L15.5673 4.69732C14.4962 4.38366 13.3593 4.36709 12.2795 4.64937C11.1996 4.93165 10.2178 5.50212 9.43985 6.29912C8.66204 7.09612 8.11776 8.0894 7.86581 9.17169C7.61385 10.2541 7.66373 11.3843 8.01028 12.4405C8.44407 13.7846 9.33839 14.9344 10.5373 15.6894L9.08523 18.8611C6.93955 17.6452 5.34696 15.6536 4.63832 13.3C3.92968 10.9463 4.15947 8.41152 5.27996 6.22201C6.33298 4.15713 8.10391 2.5432 10.2633 1.68029C12.4227 0.817397 14.8236 0.764312 17.0194 1.53094Z" stroke="url(#paint9_linear_1436_659)" stroke-opacity="0.4" stroke-width="0.133333"/>
<path d="M14.7391 17.711C14.3493 18.4734 13.7377 19.1011 12.9841 19.5127C12.2304 19.9242 11.3697 20.1002 10.5141 20.018L13.8728 12.6873C14.5426 13.3195 14.9888 14.1504 15.145 15.0558C15.3011 15.9613 15.1588 16.8927 14.7391 17.711Z" stroke="url(#paint10_linear_1436_659)" stroke-opacity="0.4" stroke-width="0.133333"/>
<path d="M14.7571 6.4828L11.369 13.8799C10.488 13.3709 9.82881 12.554 9.51949 11.5882C9.21018 10.6224 9.27284 9.57657 9.6953 8.65417C10.1178 7.73176 10.8699 6.99863 11.8054 6.59729C12.741 6.19595 13.793 6.15511 14.7571 6.4828Z" stroke="url(#paint11_linear_1436_659)" stroke-opacity="0.4" stroke-width="0.133333"/>
</g>
<defs>
<linearGradient id="paint0_linear_1436_659" x1="12.2015" y1="25.1675" x2="14.3088" y2="1.14322" gradientUnits="userSpaceOnUse">
<stop stop-color="#E13E00"/>
<stop offset="1" stop-color="#FF812A"/>
</linearGradient>
<linearGradient id="paint1_linear_1436_659" x1="12.2015" y1="25.1675" x2="14.3088" y2="1.14322" gradientUnits="userSpaceOnUse">
<stop stop-color="#E13E00"/>
<stop offset="1" stop-color="#FF812A"/>
</linearGradient>
<linearGradient id="paint2_linear_1436_659" x1="12.2015" y1="25.1675" x2="14.3088" y2="1.14322" gradientUnits="userSpaceOnUse">
<stop stop-color="#E13E00"/>
<stop offset="1" stop-color="#FF812A"/>
</linearGradient>
<linearGradient id="paint3_linear_1436_659" x1="12.2015" y1="25.1675" x2="14.3088" y2="1.14322" gradientUnits="userSpaceOnUse">
<stop stop-color="#E13E00"/>
<stop offset="1" stop-color="#FF812A"/>
</linearGradient>
<linearGradient id="paint4_linear_1436_659" x1="12.1951" y1="0.992187" x2="12.1951" y2="25.1427" gradientUnits="userSpaceOnUse">
<stop stop-color="white"/>
<stop offset="1"/>
</linearGradient>
<linearGradient id="paint5_linear_1436_659" x1="12.1951" y1="0.992187" x2="12.1951" y2="25.1427" gradientUnits="userSpaceOnUse">
<stop stop-color="white"/>
<stop offset="1"/>
</linearGradient>
<linearGradient id="paint6_linear_1436_659" x1="12.1951" y1="0.992187" x2="12.1951" y2="25.1427" gradientUnits="userSpaceOnUse">
<stop stop-color="white"/>
<stop offset="1"/>
</linearGradient>
<linearGradient id="paint7_linear_1436_659" x1="12.1951" y1="0.992187" x2="12.1951" y2="25.1427" gradientUnits="userSpaceOnUse">
<stop stop-color="white"/>
<stop offset="1"/>
</linearGradient>
<linearGradient id="paint8_linear_1436_659" x1="12.1951" y1="0.992187" x2="12.1951" y2="25.1427" gradientUnits="userSpaceOnUse">
<stop stop-color="white"/>
<stop offset="1"/>
</linearGradient>
<linearGradient id="paint9_linear_1436_659" x1="12.1951" y1="0.992187" x2="12.1951" y2="25.1427" gradientUnits="userSpaceOnUse">
<stop stop-color="white"/>
<stop offset="1"/>
</linearGradient>
<linearGradient id="paint10_linear_1436_659" x1="12.1951" y1="0.992187" x2="12.1951" y2="25.1427" gradientUnits="userSpaceOnUse">
<stop stop-color="white"/>
<stop offset="1"/>
</linearGradient>
<linearGradient id="paint11_linear_1436_659" x1="12.1951" y1="0.992187" x2="12.1951" y2="25.1427" gradientUnits="userSpaceOnUse">
<stop stop-color="white"/>
<stop offset="1"/>
</linearGradient>
</defs>
</svg>
